<svg width="22" height="22" viewBox="0 0 22 22" fill="none" xmlns="http://www.w3.org/2000/svg">
<g clip-path="url(#clip0_7634_3792)">
<path d="M22 11.0005C22 8.7036 19.7153 6.70377 16.3396 5.66136C15.2972 2.28472 13.2964 0 11.0005 0C8.70454 0 6.70377 2.28472 5.66136 5.66043C2.28472 6.70377 0 8.7036 0 11.0005C0 13.2973 2.28472 15.2972 5.66043 16.3396C6.70284 19.7162 8.70267 22 10.9995 22C13.2964 22 15.2962 19.7153 16.3386 16.3396C19.7153 15.2972 21.9991 13.2973 21.9991 11.0005H22Z" fill="url(#paint0_linear_7634_3792)"/>
</g>
<defs>
<linearGradient id="paint0_linear_7634_3792" x1="2.18182" y1="-1.01283e-05" x2="23.7625" y2="1.89151" gradientUnits="userSpaceOnUse">
<stop stop-color="#023936"/>
<stop offset="1" stop-color="#297E79"/>
</linearGradient>
<clipPath id="clip0_7634_3792">
<rect width="22" height="22" fill="white"/>
</clipPath>
</defs>
</svg>
