<svg width="25" height="26" viewBox="0 0 25 26" fill="none" xmlns="http://www.w3.org/2000/svg">
<path d="M12.0066 5.76316V0.5H12.9934V5.76316H12.0066Z" fill="#474240"/>
<path d="M11.3088 12.5066L7.96428 9.16206L8.66209 8.46426L12.0066 11.8088V7.07895H12.9934V11.8088L16.3379 8.46426L17.0357 9.16206L13.6912 12.5066H18.4211V13.4934H13.6912L17.0357 16.8379L16.3379 17.5357L12.9934 14.1912V18.9211H12.0066V14.1912L8.66208 17.5357L7.96428 16.8379L11.3088 13.4934H6.57895V12.5066H11.3088Z" fill="#474240"/>
<path d="M0 12.5066H5.26316V13.4934H0V12.5066Z" fill="#474240"/>
<path d="M19.7368 12.5066H25V13.4934H19.7368V12.5066Z" fill="#474240"/>
<path d="M12.0066 20.2368V25.5H12.9934V20.2368H12.0066Z" fill="#474240"/>
<path d="M7.03388 17.7683L3.31226 21.4899L4.01006 22.1877L7.73168 18.4661L7.03388 17.7683Z" fill="#474240"/>
<path d="M17.2683 7.53385L20.9899 3.81224L21.6877 4.51004L17.9661 8.23166L17.2683 7.53385Z" fill="#474240"/>
<path d="M17.9661 17.7683L21.6877 21.4899L20.9899 22.1877L17.2683 18.4661L17.9661 17.7683Z" fill="#474240"/>
<path d="M7.73168 7.53385L4.01007 3.81224L3.31227 4.51004L7.03388 8.23166L7.73168 7.53385Z" fill="#474240"/>
</svg>
