<svg width="26" height="26" viewBox="0 0 26 26" fill="none" xmlns="http://www.w3.org/2000/svg">
<path fill-rule="evenodd" clip-rule="evenodd" d="M7.22222 5.77778C7.22222 2.5868 9.80902 0 13 0C16.191 0 18.7778 2.5868 18.7778 5.77778V7.22222H20.2222C23.4132 7.22222 26 9.80902 26 13C26 16.191 23.4132 18.7778 20.2222 18.7778H18.7778V20.2222C18.7778 23.4132 16.191 26 13 26C9.80902 26 7.22222 23.4132 7.22222 20.2222V18.7778H5.77778C2.5868 18.7778 0 16.191 0 13C0 9.80902 2.5868 7.22222 5.77778 7.22222H7.22222V5.77778ZM6.86111 13.1806C9.19726 13.7335 12.3098 17.1148 13 19.8611C13.6902 17.1148 16.8027 13.7335 19.1389 13.1806C16.8027 12.6276 13.6902 9.24627 13 6.5C12.3098 9.24627 9.19726 12.6276 6.86111 13.1806Z" fill="#474240"/>
</svg>
