<svg width="32" height="37" viewBox="0 0 32 37" fill="none" xmlns="http://www.w3.org/2000/svg">
<path d="M16.022 10.2629C17.3151 10.2608 18.5544 9.74552 19.4679 8.83025C20.3813 7.91497 20.8941 6.67455 20.8935 5.38146C20.8946 4.08803 20.382 2.8471 19.4686 1.9314C18.5551 1.01569 17.3154 0.500141 16.022 0.498047C14.7282 0.499618 13.488 1.01494 12.5741 1.9307C11.6602 2.84646 11.1474 4.08769 11.1484 5.38146C11.1479 6.67455 11.6607 7.91497 12.5741 8.83025C13.4875 9.74552 14.7269 10.2608 16.02 10.2629" fill="white"/>
<path d="M29.5624 20.4711C28.8133 20.0372 27.9622 19.8107 27.0965 19.8151C26.2309 19.8194 25.382 20.0545 24.6374 20.496C23.8928 20.9376 23.2794 21.5696 22.8603 22.327C22.4412 23.0845 22.2316 23.94 22.2531 24.8054C22.3064 26.9646 20.3645 28.0787 18.5293 26.9646C18.4581 26.929 18.387 26.8757 18.2981 26.8401C16.4451 25.797 16.4451 23.5845 18.2981 22.5592C19.0721 22.1391 19.7186 21.5182 20.1695 20.7617C20.6204 20.0052 20.859 19.1412 20.8603 18.2606V18.1539C20.807 15.9947 22.7489 14.8825 24.5841 15.9947C25.3293 16.451 26.184 16.697 27.0577 16.7068C27.9314 16.7165 28.7914 16.4895 29.5466 16.05C30.3815 15.5666 31.0543 14.8466 31.4801 13.9809C31.906 13.1152 32.0656 12.1427 31.9389 11.1863C31.789 9.94033 31.1638 8.80033 30.1938 8.00409C29.2237 7.20785 27.9837 6.81685 26.7324 6.91266C25.4811 7.00846 24.3151 7.58367 23.4776 8.5183C22.6401 9.45293 22.1957 10.6748 22.2372 11.9291C22.2886 14.0844 20.3467 15.2005 18.5293 14.0844C17.7677 13.6065 16.8859 13.3551 15.9868 13.3594C15.0919 13.3594 14.2128 13.6043 13.4443 14.0666C11.6071 15.165 9.683 14.0488 9.73634 11.9094C9.75377 11.033 9.53763 10.1677 9.11011 9.40245C8.58109 8.45908 7.75179 7.7197 6.75414 7.30196C5.75649 6.88421 4.64779 6.81208 3.60442 7.09706C2.35529 7.43679 1.29138 8.25709 0.645136 9.37875C0.00287553 10.5031 -0.168146 11.836 0.169456 13.0861C0.507058 14.3362 1.32582 15.4018 2.44678 16.05C3.20281 16.4847 4.06152 16.7089 4.93357 16.6992C5.80562 16.6894 6.65913 16.4462 7.40526 15.9947C9.24247 14.8825 11.1666 15.9947 11.1133 18.1539V18.2606C11.1133 20.1175 12.1385 21.7275 13.6735 22.5592C15.5285 23.6023 15.5285 25.8148 13.6735 26.8401C13.6024 26.8757 13.5313 26.929 13.4621 26.9646C11.6249 28.061 9.70276 26.9448 9.75412 24.8054C9.77013 23.9077 9.545 23.0222 9.10221 22.2412C8.78292 21.6862 8.35731 21.1996 7.84975 20.8093C7.3422 20.419 6.76265 20.1326 6.14428 19.9666C5.52592 19.8005 4.88088 19.758 4.24607 19.8416C3.61127 19.9251 2.99917 20.133 2.44481 20.4533C1.32554 21.1123 0.51094 22.1857 0.177424 23.441C-0.156092 24.6964 0.018331 26.0325 0.662915 27.1601C0.982208 27.7151 1.40781 28.2017 1.91537 28.592C2.42293 28.9823 3.00248 29.2687 3.62084 29.4347C4.23921 29.6008 4.88425 29.6433 5.51905 29.5597C6.15386 29.4762 6.76595 29.2683 7.32032 28.948C7.3539 28.9282 7.37168 28.9104 7.40724 28.8926C9.24445 27.7804 11.1686 28.8926 11.1152 31.0519V31.1763C11.1168 32.4691 11.6305 33.7086 12.5439 34.6235C13.4573 35.5384 14.696 36.0541 15.9888 36.0577C17.2814 36.0541 18.5198 35.5383 19.4329 34.6234C20.346 33.7084 20.8593 32.4689 20.8603 31.1763V31.0696C20.807 28.9104 22.7509 27.7962 24.5861 28.9104C24.6217 28.9302 24.6552 28.948 24.6908 28.9815C27.0219 30.3249 30.0049 29.5307 31.3482 27.1957C32.6896 24.8054 31.8954 21.8184 29.5643 20.4731" fill="white"/>
</svg>
