<svg width="24" height="28" viewBox="0 0 24 28" fill="none" xmlns="http://www.w3.org/2000/svg">
<path d="M11.7431 8.12621C12.6907 8.12468 13.5989 7.74709 14.2682 7.07639C14.9375 6.40569 15.3133 5.49674 15.3129 4.54918C15.3137 3.60138 14.9381 2.69205 14.2687 2.02104C13.5993 1.35002 12.6909 0.972238 11.7431 0.970703C10.7951 0.971854 9.88628 1.34947 9.21658 2.02053C8.54688 2.69158 8.17111 3.60113 8.17188 4.54918C8.17149 5.49674 8.54724 6.40569 9.21658 7.07639C9.88592 7.74709 10.7941 8.12468 11.7417 8.12621" fill="#474240"/>
<path d="M21.6628 15.606C21.1139 15.288 20.4902 15.122 19.8559 15.1252C19.2215 15.1284 18.5995 15.3007 18.0539 15.6242C17.5083 15.9478 17.0587 16.4109 16.7516 16.966C16.4445 17.521 16.2909 18.1479 16.3066 18.782C16.3457 20.3643 14.9227 21.1807 13.5779 20.3643C13.5258 20.3382 13.4737 20.2991 13.4085 20.2731C12.0507 19.5087 12.0507 17.8874 13.4085 17.1361C13.9757 16.8283 14.4494 16.3733 14.7798 15.8189C15.1103 15.2646 15.2851 14.6314 15.2861 13.9861V13.9079C15.247 12.3257 16.67 11.5107 18.0148 12.3257C18.5608 12.6601 19.1872 12.8404 19.8274 12.8475C20.4676 12.8547 21.0979 12.6884 21.6512 12.3662C22.263 12.012 22.7561 11.4844 23.0681 10.85C23.3801 10.2157 23.4971 9.50306 23.4043 8.80224C23.2944 7.8892 22.8363 7.05383 22.1255 6.47036C21.4146 5.88689 20.506 5.60037 19.5891 5.67058C18.6721 5.74078 17.8177 6.16228 17.204 6.84716C16.5903 7.53204 16.2646 8.42742 16.2951 9.34654C16.3327 10.9259 14.9097 11.7438 13.5779 10.9259C13.0198 10.5757 12.3737 10.3915 11.7148 10.3946C11.0591 10.3946 10.4149 10.5741 9.85178 10.9129C8.5055 11.7177 7.09554 10.8998 7.13462 9.33207C7.14739 8.68986 6.98901 8.05582 6.67573 7.49506C6.28807 6.80377 5.68038 6.26196 4.94932 5.95585C4.21825 5.64973 3.40582 5.59688 2.64126 5.8057C1.72591 6.05465 0.946303 6.65575 0.472744 7.47769C0.00210714 8.3016 -0.123214 9.27833 0.124174 10.1944C0.371563 11.1104 0.97154 11.8913 1.79296 12.3662C2.34696 12.6848 2.97621 12.8491 3.61524 12.8419C4.25426 12.8348 4.87969 12.6566 5.42645 12.3257C6.77272 11.5107 8.18269 12.3257 8.1436 13.9079V13.9861C8.1436 15.3469 8.89491 16.5267 10.0197 17.1361C11.379 17.9004 11.379 19.5218 10.0197 20.2731C9.96758 20.2991 9.91547 20.3382 9.8648 20.3643C8.51853 21.1677 7.11001 20.3498 7.14765 18.782C7.15938 18.1242 6.99441 17.4754 6.66994 16.903C6.43597 16.4964 6.12409 16.1398 5.75216 15.8538C5.38023 15.5678 4.95555 15.3579 4.50242 15.2363C4.0493 15.1146 3.57662 15.0834 3.11145 15.1447C2.64628 15.2059 2.19774 15.3582 1.79151 15.593C0.971336 16.0759 0.374408 16.8624 0.130013 17.7823C-0.114381 18.7022 0.0134326 19.6813 0.485773 20.5076C0.719745 20.9143 1.03162 21.2708 1.40355 21.5568C1.77548 21.8428 2.20016 22.0527 2.65329 22.1744C3.10642 22.296 3.57909 22.3272 4.04427 22.266C4.50944 22.2048 4.95797 22.0524 5.3642 21.8177C5.38881 21.8032 5.40184 21.7902 5.4279 21.7771C6.77417 20.9621 8.18414 21.7771 8.14505 23.3594V23.4506C8.14619 24.3979 8.52263 25.3062 9.19196 25.9766C9.86128 26.647 10.769 27.0249 11.7163 27.0276C12.6635 27.0249 13.571 26.647 14.2401 25.9765C14.9092 25.3061 15.2853 24.3978 15.2861 23.4506V23.3724C15.247 21.7902 16.6714 20.9737 18.0163 21.7902C18.0423 21.8046 18.0669 21.8177 18.093 21.8423C19.8012 22.8266 21.987 22.2447 22.9714 20.5336C23.9543 18.782 23.3724 16.5933 21.6642 15.6074" fill="#474240"/>
</svg>
