<svg width="29" height="29" viewBox="0 0 29 29" fill="none" xmlns="http://www.w3.org/2000/svg">
<path d="M3.21075 28.5C1.86492 28.5 0.908588 27.8999 0.341755 26.6998C-0.225079 25.4996 -0.0868008 24.3844 0.756588 23.3542L9.54409 12.6667V3.16667H7.96075C7.51214 3.16667 7.13637 3.01467 6.83342 2.71067C6.53048 2.40667 6.37848 2.03089 6.37742 1.58333C6.37637 1.13578 6.52837 0.76 6.83342 0.456C7.13848 0.152 7.51425 0 7.96075 0H20.6274C21.076 0 21.4523 0.152 21.7563 0.456C22.0603 0.76 22.2118 1.13578 22.2108 1.58333C22.2097 2.03089 22.0577 2.40719 21.7548 2.71225C21.4518 3.01731 21.076 3.16878 20.6274 3.16667H19.0441V12.6667L27.8316 23.3542C28.676 24.3833 28.8148 25.4985 28.248 26.6998C27.6812 27.901 26.7243 28.5011 25.3774 28.5H3.21075Z" fill="white"/>
</svg>
