<svg width="25" height="25" viewBox="0 0 25 25" fill="none" xmlns="http://www.w3.org/2000/svg">
<path d="M12.0066 5.26316V0H12.9934V5.26316H12.0066Z" fill="white"/>
<path d="M11.3088 12.0066L7.96428 8.66206L8.66209 7.96426L12.0066 11.3088V6.57895H12.9934V11.3088L16.3379 7.96426L17.0357 8.66206L13.6912 12.0066H18.4211V12.9934H13.6912L17.0357 16.3379L16.3379 17.0357L12.9934 13.6912V18.4211H12.0066V13.6912L8.66208 17.0357L7.96428 16.3379L11.3088 12.9934H6.57895V12.0066H11.3088Z" fill="white"/>
<path d="M0 12.0066H5.26316V12.9934H0V12.0066Z" fill="white"/>
<path d="M19.7368 12.0066H25V12.9934H19.7368V12.0066Z" fill="white"/>
<path d="M12.0066 19.7368V25H12.9934V19.7368H12.0066Z" fill="white"/>
<path d="M7.03388 17.2683L3.31226 20.9899L4.01006 21.6877L7.73168 17.9661L7.03388 17.2683Z" fill="white"/>
<path d="M17.2683 7.03385L20.9899 3.31224L21.6877 4.01004L17.9661 7.73166L17.2683 7.03385Z" fill="white"/>
<path d="M17.9661 17.2683L21.6877 20.9899L20.9899 21.6877L17.2683 17.9661L17.9661 17.2683Z" fill="white"/>
<path d="M7.73168 7.03385L4.01007 3.31224L3.31227 4.01004L7.03388 7.73166L7.73168 7.03385Z" fill="white"/>
</svg>
